<?xml version="1.0" encoding="utf-8"?>
<!-- Generator: Adobe Illustrator 24.0.0, SVG Export Plug-In . SVG Version: 6.00 Build 0)  -->
<svg version="1.1" id="Layer_1" xmlns="http://www.w3.org/2000/svg" xmlns:xlink="http://www.w3.org/1999/xlink" x="0px" y="0px"
	 viewBox="0 0 1920 308.89" style="enable-background:new 0 0 1920 308.89;" xml:space="preserve">
<g>
	<polygon points="323.1,303.89 277.19,257.98 231.27,303.89 0,303.89 0,250.48 212.71,250.48 49.33,87.1 87.1,49.33 250.48,212.71 
		250.48,0 303.9,0 303.9,212.71 467.27,49.33 505.04,87.1 341.67,250.48 554.37,250.48 554.37,303.89 	"/>
	<g>
		<g>
			<path d="M738.52,49.12h94.79c26.29,0,46.36,6.19,60.24,18.56c13.87,12.37,20.8,28.99,20.8,49.84c0,24.26-10.85,41.97-32.56,53.12
				v0.73c11.09,3.4,20.68,9.95,28.76,19.65c8.08,9.71,12.12,22.56,12.12,38.57c0,23.05-8.02,41.18-24.06,54.39
				c-16.04,13.22-37.08,19.83-63.13,19.83h-96.96V49.12z M831.5,152.81c10.85,0,18.93-2.55,24.24-7.64
				c5.3-5.09,7.96-12.37,7.96-21.83c0-9.22-2.77-16.25-8.32-21.1c-5.55-4.85-13.51-7.27-23.88-7.27h-40.88v57.85H831.5z
				 M834.75,257.95c12.3,0,21.34-2.78,27.13-8.37c5.79-5.58,8.68-12.98,8.68-22.2c0-9.7-2.89-17.4-8.68-23.1
				c-5.79-5.7-14.71-8.55-26.77-8.55h-44.5v62.21H834.75z"/>
			<path d="M987.78,296.52c-14.47-8.24-25.99-19.7-34.55-34.38c-8.56-14.67-12.84-31.35-12.84-50.03c0-18.68,4.28-35.35,12.84-50.03
				c8.56-14.67,20.14-26.13,34.73-34.38c14.59-8.24,30.57-12.37,47.94-12.37c17.36,0,33.29,4.13,47.76,12.37
				c14.47,8.25,25.98,19.71,34.55,34.38c8.56,14.68,12.84,31.35,12.84,50.03c0,18.68-4.28,35.35-12.84,50.03
				c-8.57,14.68-20.08,26.14-34.55,34.38s-30.39,12.37-47.76,12.37C1018.29,308.89,1002.25,304.76,987.78,296.52z M1067.01,247.22
				c8.44-9.1,12.66-20.8,12.66-35.11c0-14.07-4.22-25.71-12.66-34.93c-8.45-9.22-18.81-13.82-31.11-13.82
				c-12.79,0-23.33,4.55-31.65,13.64c-8.32,9.1-12.48,20.8-12.48,35.11c0,14.31,4.16,26.01,12.48,35.11
				c8.32,9.1,18.87,13.64,31.65,13.64C1048.2,260.87,1058.56,256.32,1067.01,247.22z"/>
			<path d="M1156,120.43h40.97l8.59,20.74c13.26-17.22,30.75-25.83,52.46-25.83c22.18,0,38.83,6.73,49.92,20.19
				c11.09,13.46,16.64,34.14,16.64,62.03V303.8h-51.37V203.02c0-26.43-10.49-39.66-31.47-39.66c-10.62,0-18.99,3.52-25.14,10.55
				c-6.15,7.04-9.23,17.46-9.23,31.29v98.6H1156V120.43z"/>
			<path d="M1376.14,294.16c-12.37-9.08-20.87-20.99-25.52-35.76l42.34-17.54c2.17,8.5,5.97,15.16,11.4,20.01
				c5.43,4.85,12.72,7.28,21.89,7.28c8.68,0,15.5-1.58,20.44-4.73c4.94-3.15,7.42-7.52,7.42-13.1c0-4.61-2.41-8.31-7.24-11.1
				c-4.83-2.78-12.3-5.03-22.43-6.73c-22.67-4.12-40.16-10.37-52.46-18.74c-12.3-8.37-18.45-21.52-18.45-39.47
				c0-10.19,2.77-19.83,8.32-28.93c5.54-9.1,13.81-16.37,24.78-21.83c10.97-5.46,24.18-8.19,39.61-8.19
				c18.09,0,33.28,4.55,45.59,13.64c11.03,8.16,18.67,19.3,22.91,33.41l-41,16.98c-4.1-15.52-13.15-23.29-27.13-23.29
				c-7.96,0-14.23,1.46-18.81,4.36c-4.58,2.91-6.87,6.55-6.87,10.92c0,4.61,2.47,8.18,7.42,10.73c4.94,2.55,13.32,5.04,25.14,7.46
				c22.43,4.13,39.37,10.68,50.83,19.65c11.45,8.98,17.18,22.2,17.18,39.66c0,10.91-2.96,20.92-8.86,30.02
				c-5.91,9.1-14.6,16.37-26.05,21.83c-11.46,5.46-24.91,8.19-40.34,8.19C1406.22,308.89,1389.52,303.98,1376.14,294.16z"/>
			<path d="M1563.53,296.52c-13.63-8.24-24.48-19.77-32.56-34.56c-8.08-14.79-12.12-31.41-12.12-49.84
				c0-18.43,3.98-35.05,11.94-49.85c7.96-14.79,18.69-26.32,32.2-34.56c13.51-8.24,28.34-12.37,44.5-12.37
				c12.3,0,23.03,2.24,32.2,6.73c9.16,4.49,16.15,9.89,20.98,16.19v-17.83h51.37V303.8h-40.8l-8.4-20.38
				c-4.83,6.55-11.88,12.43-21.16,17.65c-9.29,5.21-20.44,7.82-33.47,7.82C1592.05,308.89,1577.16,304.76,1563.53,296.52z
				 M1648.01,248.13c8.44-9.46,12.66-21.47,12.66-36.02c0-14.79-4.22-26.86-12.66-36.2c-8.45-9.33-19.18-14.01-32.2-14.01
				c-12.79,0-23.58,4.79-32.38,14.37c-8.81,9.59-13.21,21.53-13.21,35.84c0,14.55,4.4,26.56,13.21,36.02
				c8.8,9.46,19.59,14.19,32.38,14.19C1628.83,262.32,1639.56,257.59,1648.01,248.13z"/>
			<path d="M1750.93,89.5c-5.43-5.58-8.14-12.25-8.14-20.01c0-7.76,2.77-14.43,8.32-20.01c5.55-5.58,12.06-8.37,19.54-8.37
				c7.72,0,14.41,2.79,20.08,8.37c5.66,5.58,8.5,12.25,8.5,20.01c0,7.77-2.84,14.44-8.5,20.01c-5.67,5.58-12.36,8.37-20.08,8.37
				C1762.92,97.87,1756.36,95.08,1750.93,89.5z M1745.32,120.43h51.37V303.8h-51.37V120.43z"/>
		</g>
		<path d="M1839.25,49.48h30.8v8.87h-10.65V89.5h-9.32V58.36h-10.82V49.48z M1920,89.5h-9.32V66.89l-9.49,22.27v0.34h-6.33
			l-9.32-21.77V89.5h-9.49V49.48h10.32l11.65,27.13l11.66-27.13H1920V89.5z"/>
	</g>
</g>
</svg>
